<svg width="200" height="200" fill="none" xmlns="http://www.w3.org/2000/svg"><path d="M58.984 3.418c-.234.273-.215.644.098 1.855.117.45.04.528-.898.84-1.914.684-3.496 2.637-3.79 4.63l-.136.878-1.739.02h-1.738v-.938c0-.723-.078-.976-.37-1.133-1.134-.605-1.856.176-1.74 1.856.06 1.074.04 1.113-.839 2.031-2.695 2.793-1.074 6.758 3.3 8.047.509.156.821.351.821.547 0 .176-.215 2.422-.488 5a621.24 621.24 0 0 0-1.504 17.187c-.156 2.227-.254 7.188-.254 13.575 0 8.69.059 10.546.39 13.574.489 4.394.47 10.156-.097 21.875-.84 17.675-.332 27.207 2.246 41.699.371 2.09.938 5.879 1.27 8.398.742 5.723.996 7.168 1.953 10.84 2.656 10.254 7.383 20.469 13.36 28.985.917 1.328 1.679 2.441 1.679 2.5 0 .058-.215.273-.489.488-.253.195-.8 1.015-1.19 1.797-.567 1.172-.704 1.66-.704 2.617 0 3.418 3.633 5.664 7.012 4.297l1.21-.488.098.41c.215.84 1.27 1.836 2.422 2.265 2.617.996 5.43 0 7.07-2.5l.294-.449 1.152.527c2.46 1.133 5.215.586 6.386-1.25 1.016-1.621.938-3.535-.234-5.253l-.586-.86v-4.922c0-7.148.703-12.949 2.383-19.609 1.191-4.805 1.328-5.156 2.09-5.469.371-.156.781-.234.918-.176.45.157 4.297 10.196 6.504 16.914 1.445 4.434 1.738 5.45 2.851 9.707.684 2.637.801 3.379.586 3.379-.449 0-1.875 1.407-2.246 2.246-.937 2.032 0 4.571 2.031 5.547 1.016.489 2.93.547 3.985.118l.703-.293.801.859c1.035 1.094 2.031 1.523 3.633 1.562 1.464.02 2.617-.429 3.769-1.445.703-.605.762-.625 1.094-.312.469.429 2.012.898 2.91.898 1.289 0 2.969-.605 3.75-1.348 1.25-1.191 1.465-3.652.508-5.879-.215-.527-.313-1.816-.391-5.078-.098-4.375-.449-8.457-.996-11.816-.156-.957-.254-1.758-.215-1.797.02-.019 1.055.156 2.305.43 6.582 1.386 14.16 1.601 21.25.566 11.933-1.758 18.808-5.566 23.828-13.262 1.855-2.851 3.164-5.957 4.141-9.765.761-3.086.976-7.52.468-10.059-.996-4.863-3.886-8.515-8.105-10.195-1.602-.625-5.078-.625-6.738.019-2.715 1.075-5.508 3.594-7.071 6.407-.371.664-1.074 2.285-1.562 3.613-.488 1.328-1.192 3.047-1.582 3.809-1.348 2.753-4.18 4.726-8.379 5.859-1.777.469-2.246.527-5.645.527-3.086 0-4.043-.078-5.703-.429-2.363-.508-4.922-1.329-6.816-2.188l-1.387-.605-.117-2.129c-.332-5.762-1.699-11.153-4.18-16.407-.547-1.152-1.015-2.519-1.23-3.613-.196-.976-.762-3.242-1.25-5.058-.762-2.832-1.387-6.426-4.336-24.883-1.875-11.856-3.379-21.66-3.32-21.797.039-.117 1.933-2.402 4.199-5.078 2.461-2.91 4.14-5.078 4.218-5.41.176-.762-.175-1.758-.839-2.383-.293-.274-1.446-.938-2.578-1.465-2.032-.957-9.922-4.082-11.446-4.531l-.801-.235-.019-6.68c0-6.933-.313-12.128-1.035-17.929-.215-1.719-.352-3.164-.332-3.184.039-.02.41-.234.84-.449 1.601-.8 2.441-2.207 2.441-3.984-.02-1.66-.742-2.95-2.227-3.848-.449-.293-.703-.586-.703-.86 0-.234-.176-.8-.39-1.25-.411-.917-1.055-1.21-1.758-.84-.352.196-.41.352-.352.938.059.41.157.88.235 1.055.136.313.058.352-.625.352h-.762l-.039-.996c-.039-1.836-1.133-3.223-2.93-3.692a30.534 30.534 0 0 0-1.21-.312c-.177-.059-.372-.352-.43-.664-.079-.313-.372-.84-.684-1.192-.469-.508-.645-.605-1.094-.488-.82.195-1.015.879-.527 1.816l.39.801-.566.235c-1.289.527-2.637 2.324-2.871 3.828l-.117.664h-1.211c-1.211 0-1.23 0-1.348-.625-.273-1.367-1.562-1.973-2.187-1.035-.293.449-.293.546.02 1.367l.35.879-.8.742c-1.856 1.719-1.875 4.043-.04 5.937.665.664 1.153.977 1.954 1.211l1.074.313.02 7.07c0 3.906.078 7.422.156 7.813l.137.703-1.035.117c-.567.059-2.344.195-3.965.332-4.668.352-8.457.918-10.41 1.562-1.485.489-3.672 2.07-4.903 3.536l-.86 1.035.138-3.125c.058-1.719.156-5.684.215-8.79.058-3.124.156-7.44.214-9.628l.118-3.946h.624c.938 0 2.481-.82 3.36-1.796 2.012-2.188 1.894-5.684-.254-7.286-.703-.527-.8-.703-.899-1.62-.156-1.368-.566-1.993-1.308-1.993-.84 0-1.23.664-.957 1.64.117.41.176.762.137.802-.04.039-.45.156-.899.253l-.82.196v-.625c0-.977-.547-2.578-1.113-3.242-.665-.801-1.797-1.348-3.125-1.524-1.075-.137-1.094-.137-1.348-.976-.137-.47-.39-1.016-.586-1.23-.39-.45-1.309-.49-1.64-.079Zm4.297 4.746c1.407.703 1.66 2.227.684 4.2-.567 1.093-.625 1.738-.196 2.09.489.41 1.231.273 1.954-.352 1.465-1.309 3.73-1.446 4.804-.313.684.742.664 2.441-.058 3.535-.684 1.055-1.543 1.426-3.242 1.426-.762 0-1.446.078-1.504.195-.059.098-.157 2.403-.196 5.117-.078 4.532-.215 10.938-.664 31.211-.097 4.336-.097 7.461 0 7.657.293.566.82.742 1.368.488.43-.234.488-.39.644-2.5l.176-2.246 1.074 1.152c1.426 1.485 3.066 2.54 4.824 3.106l1.426.449.098.977c.117 1.093-.02 2.05-.274 2.05-.097 0-.176-.332-.176-.742 0-.957-.449-1.602-1.152-1.602-.781 0-.996.332-.996 1.563 0 .84.137 1.387.606 2.305.996 2.03 2.675 3.007 5.156 3.027 1.543 0 2.402-.313 2.754-.996.215-.45.234-.43.722.39.684 1.153 2.54 2.91 3.926 3.75 1.914 1.153 3.36 1.524 5.742 1.505 4.649-.02 7.91-1.641 10.176-5.02 2.481-3.692 2.734-8.477.625-12.09-2.52-4.355-8.457-6.875-13.203-5.625l-1.367.352.058-1.27c.157-2.812-.898-5.625-2.832-7.578-.625-.625-1.347-1.27-1.62-1.445-.274-.176-.45-.352-.391-.41.214-.215 6.757-.528 10.8-.528 3.965 0 4.258.02 4.16.332-.058.196-.468 1.817-.918 3.594-.78 3.203-.8 3.262-1.367 3.379-.761.137-1.133.898-.742 1.504.234.332 1.055.625 3.692 1.347 4.453 1.23 7.304 2.188 12.89 4.395 5.196 2.031 7.52 3.105 7.676 3.477.059.136-1.758 2.44-4.102 5.234a2325.924 2325.924 0 0 0-5.253 6.25c-1.211 1.484-1.348 2.129-.547 2.637.468.312.507.312 1.074-.098.332-.254.625-.41.644-.371.02.02.547 3.262 1.172 7.187.606 3.926 1.465 9.317 1.895 12.012 1.054 6.582 2.011 12.695 2.734 17.188.703 4.433.899 5.351 1.934 9.179.429 1.602.918 3.77 1.093 4.785.157 1.016.43 1.993.567 2.149.976 1.074 3.105 6.914 3.887 10.644.488 2.364 1.015 6.68.839 6.875-.136.118-2.636-1.562-4.453-3.007-1.816-1.465-4.492-4.122-6.152-6.133-.723-.86-1.465-1.641-1.66-1.758-.527-.273-1.133-.039-1.367.547-.235.605-.098.84 1.66 2.949 6.152 7.305 13.847 12.09 22.109 13.711 2.949.586 7.344.723 10.02.312 4.179-.644 8.047-2.441 10.156-4.726 1.27-1.387 1.992-2.754 3.359-6.367 1.309-3.477 2.11-4.864 3.789-6.543 1.075-1.074 1.797-1.602 2.95-2.149 1.445-.703 1.66-.742 3.418-.742 1.757 0 1.933.039 3.418.762 2.089 1.035 3.671 2.637 4.746 4.844 1.015 2.07 1.386 3.769 1.386 6.64 0 6.582-2.929 13.809-7.617 18.77-4.433 4.687-10.469 7.246-20.215 8.554-4.101.547-11.25.606-15.019.098-9.395-1.23-17.07-4.336-23.848-9.648-1.914-1.524-5.449-5.098-6.933-7.071-1.739-2.285-3.477-5.234-4.473-7.539-1.211-2.851-1.23-2.91-1.836-2.968-1.328-.157-1.426.82-.352 3.378 3.946 9.473 12.247 17.579 22.559 22.051 1.289.586 2.988 1.25 3.77 1.504l1.406.449.215.977c.781 3.613 1.484 12.812 1.289 16.543-.118 2.266-.117 2.285.39 2.91.45.508.528.82.547 1.797.02 1.035-.039 1.211-.508 1.621-.664.566-2.226.801-3.164.488-.82-.273-1.484-1.035-1.484-1.718 0-.665-.527-1.211-1.172-1.211-.684 0-.976.332-.976 1.113 0 2.637-3.497 3.906-5.254 1.914-.704-.801-.704-.801-.313-1.719.527-1.289.215-2.285-.723-2.285-.507 0-1.464 1.016-1.621 1.758-.293 1.308-2.617 1.836-3.789.859-1.406-1.191-.664-3.789.996-3.457.664.137 1.329-.371 1.329-1.015 0-1.153-2.208-9.258-4.141-15.137-1.934-5.918-5.899-16.289-6.699-17.52-.586-.879-2.891-.761-4.434.254-.625.391-.781.684-1.23 2.071-2.657 8.437-4.063 19.14-3.633 27.636.156 2.949.176 2.989.761 3.672 1.055 1.192 1.016 2.832-.117 3.574-.664.43-2.285.411-3.164-.039-.918-.488-1.562-1.093-1.562-1.484 0-.547-.762-1.367-1.29-1.367-.527 0-1.25.625-1.25 1.093 0 .157.079.45.196.645.313.586-.156 1.797-1.055 2.695-.644.625-1.015.84-1.757.938-1.192.195-2.305-.137-2.852-.84-.45-.547-.45-.762-.078-3.008.098-.605.058-.762-.39-1.035-.626-.41-1.212-.234-1.563.449-.684 1.289-2.383 2.383-3.672 2.383-.723 0-1.836-.586-2.344-1.23-1.055-1.329.371-4.629 1.992-4.629.293 0 .625-.118.723-.235.488-.625.41-.937-.645-2.246-5.449-6.816-10.468-16.347-13.632-25.859-1.817-5.508-2.618-9.317-3.75-18.047-.274-2.148-.704-5-.957-6.348-1.7-8.847-2.637-18.652-2.637-27.636 0-2.911.176-8.926.37-13.38.626-13.32.684-17.07.333-20.312-.527-4.805-.703-8.808-.703-15.43 0-9.062.41-15.878 1.777-29.57.899-8.984.918-8.71-.781-8.71-1.094 0-3.184-.938-3.652-1.66-.84-1.27-.352-2.813 1.113-3.556 1.64-.82 3.77-.761 4.922.137.625.488 1.152.488 1.601 0 .332-.371.332-.469.059-1.758-.488-2.246.078-3.574 1.875-4.414 1.27-.586 3.555-.644 4.61-.117Zm33.106 4.55c.43.118.976.391 1.23.626.625.566.606 2.09-.058 3.379-.762 1.484-.645 2.187.43 2.5.35.117.605-.02 1.152-.567.859-.859 1.386-1.074 2.636-1.074 1.934 0 2.911.86 2.911 2.54 0 1.034-.528 1.581-2.129 2.167-1.289.469-1.758 1.035-1.407 1.7.215.41.684 4.042 1.094 8.495.391 4.22.684 12.872.547 16.23l-.117 2.599-1.778-.547c-.976-.293-2.148-.645-2.597-.762l-.801-.195.977-3.77c1.093-4.2 1.132-5 .254-5.742-.489-.43-.645-.45-4.395-.45h-3.887l-.136-.937c-.079-.508-.157-4.062-.157-7.89-.02-5.332.04-7.032.235-7.207.117-.137.234-.489.234-.801 0-.762-.644-1.113-1.973-1.074-1.465.039-2.324-.47-2.715-1.582-.253-.743-.253-.899 0-1.368.743-1.328 3.692-1.894 4.844-.918 1.075.899 2.149.489 1.914-.722-.312-1.485-.332-2.13-.117-2.774.234-.761 1.191-1.601 2.09-1.875.742-.215.84-.215 1.719.02ZM78.809 43.653c1.66.45 2.91 1.192 4.101 2.48 1.7 1.837 2.324 4.18 1.856 6.934-.215 1.348-.254 1.426-1.66 2.852-1.094 1.133-1.622 1.855-2.266 3.242-.8 1.64-.918 1.778-1.64 1.992-1.231.371-3.907.274-5.372-.195-2.46-.781-4.492-2.48-5.527-4.668-.586-1.23-.625-1.445-.625-3.457 0-2.46.332-3.672 1.426-5.332.703-1.074 2.5-2.715 3.613-3.3 1.64-.84 4.082-1.056 6.094-.548ZM93.262 54.98c2.5.645 4.844 2.208 6.152 4.102 1.914 2.793 1.856 7.05-.156 10.176-1.934 2.969-4.707 4.277-8.828 4.14-1.934-.058-2.168-.097-3.575-.8-2.695-1.329-4.687-3.848-5.234-6.641-.293-1.445.156-3.945 1.016-5.762 1.152-2.383 3.965-4.726 6.347-5.293 1.192-.273 3.008-.234 4.278.078Zm-13.848 9.922c.02 1.016.176 2.051.43 2.832.293.918.332 1.172.117.997-.215-.176-.547-.176-1.309-.02-1.171.215-2.265.098-2.421-.254-.04-.156-.02-.644.078-1.113.156-.82.195-.84 1.152-1.035.547-.118 1.152-.313 1.328-.47.469-.39.39-1.25-.195-1.796l-.508-.469.664-.117c.352-.078.644-.137.644-.156 0 0 .02.703.02 1.601Z" fill="#000"/><path d="M119.238 163.984c-.195.157-.273.274-.156.274a.437.437 0 0 0 .352-.196c.175-.292.703 0 .898.508.078.254.293.469.469.469.449 0 .351-.332-.235-.742-.878-.586-.918-.606-1.328-.313Z" fill="#000"/><path d="M119.668 164.473c.137.136.293.195.352.136.058-.058-.04-.175-.235-.234-.273-.117-.293-.098-.117.098Zm1.875.703c0 .137.078.254.156.254s.176-.117.235-.254c.058-.156 0-.274-.137-.274s-.254.118-.254.274Zm.723.351c.136.176.293.254.351.196.059-.059.235.019.391.136.254.215 1.211.391 1.211.215 0-.097-1.739-.84-1.992-.84-.118 0-.098.118.039.293Zm2.148.879c0 .098.098.196.215.196.098 0 .137-.098.078-.196-.059-.117-.156-.195-.215-.195-.039 0-.078.078-.078.195Zm.879 0c-.195.313.117.625.508.528.195-.059.429-.02.488.078.137.234.469.039.469-.274 0-.136-.078-.117-.196.059-.136.195-.195.215-.195.039 0-.156-.156-.195-.488-.117-.488.117-.703-.196-.234-.371.175-.078.175-.118 0-.118-.118-.019-.293.059-.352.176Zm2.266.899c0 .215.058.273.117.117.058-.137.039-.313-.02-.371-.058-.078-.117.039-.097.254Zm-47.715 15.781c-3.34.898-4.395 4.766-1.738 6.328.8.469 1.132.527 3.046.586 2.5.098 3.555-.137 4.473-.938.82-.722 1.563-2.363 1.387-3.105-.332-1.543-1.758-2.578-4.024-2.949-1.562-.235-1.992-.235-3.144.078Zm3.75 2.305c.37.117.8.293.937.41.39.312.274 1.015-.273 1.523-.45.41-.703.469-2.422.528-2.11.078-3.125-.235-3.125-.918 0-.567.918-1.543 1.621-1.778.703-.195 2.227-.097 3.262.235Zm32.676-1.524c-2.891.918-3.516 3.613-1.231 5.293.859.645 2.422.938 4.57.84 1.602-.059 1.914-.117 2.578-.586.997-.684 1.446-1.484 1.446-2.5 0-.976-.391-1.797-1.153-2.324-1.25-.899-4.453-1.27-6.21-.723Zm4.531 2.285c.742.352.859 1.016.254 1.426-.508.371-2.95.43-4.082.117-1.407-.39-1.485-1.23-.157-1.718.84-.293 3.204-.196 3.985.175Zm-43.36-133.32c-.859.84-.605 2.188.489 2.637.683.293 1.64 0 1.953-.606.586-1.074-.195-2.52-1.367-2.52-.372 0-.782.176-1.075.489Zm12.793 10.645c-.234.234-.39.644-.39 1.074 0 .898.566 1.465 1.465 1.465.859 0 1.464-.625 1.464-1.504 0-.86-.585-1.426-1.464-1.426-.43 0-.84.156-1.075.39Z" fill="#000"/></svg>