<svg width="291" height="51" fill="none" xmlns="http://www.w3.org/2000/svg"><path d="M80.631 14.065V37h-3.762V21.292L69.873 37h-2.607l-7.029-15.708V37h-3.762V14.065h4.059l8.052 17.985 8.019-17.985h4.026Zm21.313 4.752L90.79 45.547h-3.894l3.696-8.844-7.161-17.886h4.19l5.116 13.86 5.313-13.86h3.894Z" fill="#fff"/><path d="M103.529 25.483c0-2.244.517-4.257 1.551-6.039 1.056-1.782 2.475-3.168 4.257-4.158 1.804-1.012 3.773-1.518 5.907-1.518 2.442 0 4.609.605 6.501 1.815 1.914 1.188 3.3 2.882 4.158 5.082h-4.521c-.594-1.21-1.419-2.112-2.475-2.706-1.056-.594-2.277-.891-3.663-.891-1.518 0-2.871.341-4.059 1.023-1.188.682-2.123 1.661-2.805 2.937-.66 1.276-.99 2.761-.99 4.455s.33 3.179.99 4.455c.682 1.276 1.617 2.266 2.805 2.97 1.188.682 2.541 1.023 4.059 1.023 1.386 0 2.607-.297 3.663-.891 1.056-.594 1.881-1.496 2.475-2.706h4.521c-.858 2.2-2.244 3.894-4.158 5.082-1.892 1.188-4.059 1.782-6.501 1.782-2.156 0-4.125-.495-5.907-1.485a11.441 11.441 0 0 1-4.257-4.191c-1.034-1.782-1.551-3.795-1.551-6.039Zm34.664 11.814c-1.716 0-3.267-.385-4.653-1.155a8.562 8.562 0 0 1-3.267-3.3c-.792-1.43-1.188-3.08-1.188-4.95 0-1.848.407-3.487 1.221-4.917.814-1.43 1.925-2.53 3.333-3.3 1.408-.77 2.981-1.155 4.719-1.155 1.738 0 3.311.385 4.719 1.155 1.408.77 2.519 1.87 3.333 3.3.814 1.43 1.221 3.069 1.221 4.917 0 1.848-.418 3.487-1.254 4.917a8.769 8.769 0 0 1-3.432 3.333c-1.43.77-3.014 1.155-4.752 1.155Zm0-3.267c.968 0 1.87-.231 2.706-.693.858-.462 1.551-1.155 2.079-2.079.528-.924.792-2.046.792-3.366 0-1.32-.253-2.431-.759-3.333-.506-.924-1.177-1.617-2.013-2.079a5.505 5.505 0 0 0-2.706-.693c-.968 0-1.87.231-2.706.693-.814.462-1.463 1.155-1.947 2.079-.484.902-.726 2.013-.726 3.333 0 1.958.495 3.476 1.485 4.554 1.012 1.056 2.277 1.584 3.795 1.584Zm35.168-15.51c1.43 0 2.706.297 3.828.891 1.144.594 2.035 1.474 2.673 2.64.66 1.166.99 2.574.99 4.224V37h-3.729V26.836c0-1.628-.407-2.871-1.221-3.729-.814-.88-1.925-1.32-3.333-1.32-1.408 0-2.53.44-3.366 1.32-.814.858-1.221 2.101-1.221 3.729V37h-3.729V26.836c0-1.628-.407-2.871-1.221-3.729-.814-.88-1.925-1.32-3.333-1.32-1.408 0-2.53.44-3.366 1.32-.814.858-1.221 2.101-1.221 3.729V37h-3.762V18.817h3.762v2.079c.616-.748 1.397-1.331 2.343-1.749a7.427 7.427 0 0 1 3.036-.627c1.452 0 2.75.308 3.894.924a6.316 6.316 0 0 1 2.64 2.673c.55-1.1 1.408-1.969 2.574-2.607a7.513 7.513 0 0 1 3.762-.99Zm34.289 0c1.43 0 2.706.297 3.828.891 1.144.594 2.035 1.474 2.673 2.64.66 1.166.99 2.574.99 4.224V37h-3.729V26.836c0-1.628-.407-2.871-1.221-3.729-.814-.88-1.925-1.32-3.333-1.32-1.408 0-2.53.44-3.366 1.32-.814.858-1.221 2.101-1.221 3.729V37h-3.729V26.836c0-1.628-.407-2.871-1.221-3.729-.814-.88-1.925-1.32-3.333-1.32-1.408 0-2.53.44-3.366 1.32-.814.858-1.221 2.101-1.221 3.729V37h-3.762V18.817h3.762v2.079c.616-.748 1.397-1.331 2.343-1.749a7.427 7.427 0 0 1 3.036-.627c1.452 0 2.75.308 3.894.924a6.316 6.316 0 0 1 2.64 2.673c.55-1.1 1.408-1.969 2.574-2.607a7.513 7.513 0 0 1 3.762-.99Zm28.943 8.943c0 .682-.044 1.298-.132 1.848h-13.893c.11 1.452.649 2.618 1.617 3.498.968.88 2.156 1.32 3.564 1.32 2.024 0 3.454-.847 4.29-2.541h4.059c-.55 1.672-1.551 3.047-3.003 4.125-1.43 1.056-3.212 1.584-5.346 1.584-1.738 0-3.3-.385-4.686-1.155-1.364-.792-2.442-1.892-3.234-3.3-.77-1.43-1.155-3.08-1.155-4.95s.374-3.509 1.122-4.917c.77-1.43 1.837-2.53 3.201-3.3 1.386-.77 2.97-1.155 4.752-1.155 1.716 0 3.245.374 4.587 1.122a7.9 7.9 0 0 1 3.135 3.168c.748 1.342 1.122 2.893 1.122 4.653Zm-3.927-1.188c-.022-1.386-.517-2.497-1.485-3.333-.968-.836-2.167-1.254-3.597-1.254-1.298 0-2.409.418-3.333 1.254-.924.814-1.474 1.925-1.65 3.333h10.065Zm11.391-4.818a5.819 5.819 0 0 1 2.178-2.145c.924-.528 2.013-.792 3.267-.792v3.894h-.957c-1.474 0-2.596.374-3.366 1.122-.748.748-1.122 2.046-1.122 3.894V37h-3.762V18.817h3.762v2.64Zm7.649 6.435c0-1.87.374-3.509 1.122-4.917.77-1.43 1.826-2.53 3.168-3.3s2.882-1.155 4.62-1.155c2.2 0 4.015.528 5.445 1.584 1.452 1.034 2.431 2.519 2.937 4.455h-4.059c-.33-.902-.858-1.606-1.584-2.112-.726-.506-1.639-.759-2.739-.759-1.54 0-2.772.55-3.696 1.65-.902 1.078-1.353 2.596-1.353 4.554 0 1.958.451 3.487 1.353 4.587.924 1.1 2.156 1.65 3.696 1.65 2.178 0 3.619-.957 4.323-2.871h4.059c-.528 1.848-1.518 3.322-2.97 4.422-1.452 1.078-3.256 1.617-5.412 1.617-1.738 0-3.278-.385-4.62-1.155-1.342-.792-2.398-1.892-3.168-3.3-.748-1.43-1.122-3.08-1.122-4.95Zm37.706-.429c0 .682-.044 1.298-.132 1.848h-13.893c.11 1.452.649 2.618 1.617 3.498.968.88 2.156 1.32 3.564 1.32 2.024 0 3.454-.847 4.29-2.541h4.059c-.55 1.672-1.551 3.047-3.003 4.125-1.43 1.056-3.212 1.584-5.346 1.584-1.738 0-3.3-.385-4.686-1.155-1.364-.792-2.442-1.892-3.234-3.3-.77-1.43-1.155-3.08-1.155-4.95s.374-3.509 1.122-4.917c.77-1.43 1.837-2.53 3.201-3.3 1.386-.77 2.97-1.155 4.752-1.155 1.716 0 3.245.374 4.587 1.122a7.9 7.9 0 0 1 3.135 3.168c.748 1.342 1.122 2.893 1.122 4.653Zm-3.927-1.188c-.022-1.386-.517-2.497-1.485-3.333-.968-.836-2.167-1.254-3.597-1.254-1.298 0-2.409.418-3.333 1.254-.924.814-1.474 1.925-1.65 3.333h10.065ZM8.052 18.667h31.486c.097 0 .193.005.288.015l6.063-16.924A2.638 2.638 0 0 1 48.367 0h7.664c1.456 0 2.636 1.194 2.636 2.667 0 1.472-1.18 2.666-2.636 2.666h-5.816L39.38 35.575a2.637 2.637 0 0 1-2.477 1.758H10.545a2.638 2.638 0 0 1-2.5-1.823l-7.908-24C-.432 9.783.84 8 2.637 8H26.36c1.455 0 2.635 1.194 2.635 2.667 0 1.472-1.18 2.666-2.636 2.666H6.296l1.757 5.334ZM9.809 24l2.636 8h22.61l2.865-8H9.81Zm6.008 26.667c-2.912 0-5.272-2.388-5.272-5.334 0-2.945 2.36-5.333 5.271-5.333 2.912 0 5.272 2.388 5.272 5.333 0 2.946-2.36 5.334-5.272 5.334Zm18.45 0c-2.912 0-5.272-2.388-5.272-5.334 0-2.945 2.36-5.333 5.272-5.333 2.911 0 5.271 2.388 5.271 5.333 0 2.946-2.36 5.334-5.271 5.334Z" fill="#5CE1E6"/></svg>